<?xml version="1.0" encoding="UTF-8" standalone="no"?>
<!-- Created with Inkscape (http://www.inkscape.org/) -->

<svg
   width="403.20828"
   height="493.32108"
   viewBox="0 0 106.68219 130.52453"
   version="1.1"
   id="svg5"
   xml:space="preserve"
   xmlns="http://www.w3.org/2000/svg"
   xmlns:svg="http://www.w3.org/2000/svg"><defs
     id="defs2" /><g
     id="Layer_1"
     transform="matrix(0.26458333,0,0,0.26458333,-82.3913,-36.329937)">
	<g
   id="g331">
		<g
   id="g323">
			<g
   id="g319">
				<path
   class="st0"
   d="m 584.52,351.23 c -9.56,-7.79 -23.58,2.34 -25.13,19.85 -1.56,17.52 -2.34,38.54 -21.8,41.66 0,0 0.39,-10.9 -3.11,-12.85 -1.35,-0.75 -2.89,-1 -4.26,-1.01 -2.1,-0.03 -3.77,1.72 -3.63,3.82 0.3,4.33 0.34,11.45 -2.62,11.99 -4.01,0.73 -8.01,-3.65 -8.19,-13.15 -0.02,-1.13 -0.96,-2.03 -2.1,-2.03 h -1.58 -1.56 c -1.15,0 -2.1,0.93 -2.1,2.09 0,9.34 -2.47,12.85 -6.46,12.12 -2.97,-0.54 -2.66,-6.97 -2.2,-10.87 0.21,-1.75 -1.01,-3.35 -2.76,-3.59 -2.31,-0.32 -5.36,-0.45 -7.31,0.64 -3.5,1.95 -3.11,12.85 -3.11,12.85 -19.46,-3.11 -20.24,-24.14 -21.8,-41.66 -1.56,-17.52 -15.57,-27.64 -25.13,-19.85 -9.56,7.79 4.11,19.85 3.72,29.2 -0.39,9.34 -8.17,21.41 0,29.98 8.18,8.56 29.98,22.19 29.98,22.19 17.52,15.18 38.73,13.24 38.73,13.24 0,0 21.22,1.95 38.74,-13.24 0,0 21.8,-13.63 29.98,-22.19 8.18,-8.56 0.39,-20.63 0,-29.98 -0.41,-9.35 13.26,-21.42 3.7,-29.21 z"
   id="path315" />
				<path
   class="st0"
   d="m 630.63,239.89 c 1.17,-42.43 -13.24,-51.78 -27.64,-62.29 -14.4,-10.51 -22.97,-38.15 -90.9,-40.29 0,0 -57.81,5.84 -79.42,22.77 -21.61,16.93 -37.37,42.63 -37.37,62.48 0,19.85 5.26,30.95 7.01,51.39 1.75,20.44 21.61,27.44 22.77,-22.77 0,0 8.76,43.8 -5.26,51.39 -14.02,7.59 -12.85,15.77 -2.92,22.77 9.93,7.01 21.61,9.93 33.87,11.09 12.26,1.17 9.34,15.57 15.96,24.14 6.62,8.56 12.07,3.89 12.46,12.46 0.08,1.82 0.13,3.25 0.15,4.38 0.05,2.33 1.95,4.18 4.28,4.18 h 2.57 c 2.36,0 4.28,-1.92 4.28,-4.28 v -9.73 h 6.23 v 9.73 c 0,2.37 1.92,4.28 4.28,4.28 h 0.39 c 2.37,0 4.28,-1.92 4.28,-4.28 v -9.73 h 4.28 v 9.73 c 0,2.37 1.92,4.28 4.28,4.28 h 2.72 c 2.37,0 4.28,-1.92 4.28,-4.28 v -9.73 h 5.45 v 9.73 c 0,2.37 1.92,4.28 4.28,4.28 h 0.39 c 2.37,0 4.28,-1.92 4.28,-4.28 v -9.73 h 3.89 v 9.73 c 0,2.37 1.92,4.28 4.28,4.28 2.37,0 4.28,-1.92 4.28,-4.28 v -6.23 c 0,-7.01 -4.07,-14.4 8.18,-16.74 12.25,-2.34 15.8,-15.18 31.65,-18.3 15.85,-3.11 31.81,-4.28 33.36,-21.02 1.56,-16.74 -22.19,-14.01 -18.3,-38.93 3.89,-24.92 1.56,-38.93 -5.84,-49.44 -7.4,-10.51 0.39,-28.42 -14.02,-34.26 0,0 12.85,2.34 14.79,15.57 1.95,13.24 0.78,20.24 10.51,25.69 9.73,5.45 3.89,54.5 3.89,54.5 0,0 17.18,-5.82 18.35,-48.26 z m -144.17,48.38 c -20.15,22.22 -33.58,16.93 -39.42,1.46 -5.84,-15.48 -4.96,-34.45 9.93,-41.17 14.89,-6.72 33.58,-2.04 39.07,10.9 5.49,12.94 -9.58,28.81 -9.58,28.81 z m 39.35,44.96 c -3.8,-4.67 -10.8,-6.91 -10.8,-6.91 0,0 -10.51,0.39 -13.63,5.06 0,0 -5.97,-31.14 11.61,-45.16 0,0 9.65,4.38 9.94,14.02 0.29,9.64 4.04,12.26 8.42,21.61 4.39,9.34 -1.74,16.05 -5.54,11.38 z m 56.06,-43.5 c -5.84,15.47 -19.27,20.76 -39.42,-1.46 0,0 -15.07,-15.86 -9.58,-28.81 5.49,-12.94 24.18,-17.62 39.07,-10.9 14.9,6.71 15.77,25.69 9.93,41.17 z"
   id="path317" />
			</g>
			<path
   class="st0"
   d="m 415.79,502.86 c -23.55,-6.18 -48.65,-7.34 -65.25,-4.63 -16.6,2.7 -33.2,-3.47 -35.52,-15.83 -2.32,-12.35 10.42,-25.48 11.2,-33.59 0.77,-8.11 -16.6,-11.97 -14.67,-25.48 1.93,-13.51 22.78,-23.55 40.93,-20.08 18.15,3.47 30.89,30.89 42.08,43.24 11.2,12.35 32.43,20.08 65.25,34.36 32.82,14.28 113.9,43.24 143.63,52.51 29.73,9.27 58.3,14.67 69.11,14.67 10.81,0 32.43,-9.65 39.38,11.2 6.95,20.85 -1.16,27.41 -6.95,37.07 -5.79,9.65 -2.32,29.73 -15.83,33.59 -13.51,3.86 -25.48,-8.11 -31.66,-18.53 -6.18,-10.42 -16.22,-25.1 -54.44,-40.15 -38.23,-15.07 -163.71,-62.17 -187.26,-68.35 z"
   id="path321" />
		</g>
		<g
   id="g329">
			<path
   class="st0"
   d="m 447.66,525.06 c -10.02,3.43 -18.76,6.33 -25.09,8.3 -29.73,9.27 -58.3,14.67 -69.11,14.67 -10.81,0 -32.43,-9.65 -39.38,11.2 -6.95,20.85 1.16,27.41 6.95,37.07 5.79,9.65 2.32,29.73 15.83,33.59 13.51,3.86 25.48,-8.11 31.66,-18.53 6.18,-10.42 16.22,-25.1 54.44,-40.15 15.04,-5.93 43.61,-16.82 74.15,-28.22 -17.82,-6.58 -35.04,-12.83 -49.45,-17.93 z"
   id="path325" />
			<path
   class="st0"
   d="m 578.27,513.37 c 14.75,-5.18 26.29,-9.03 31.94,-10.51 23.55,-6.18 48.65,-7.34 65.25,-4.63 16.6,2.7 33.2,-3.47 35.52,-15.83 2.32,-12.35 -10.42,-25.48 -11.2,-33.59 -0.77,-8.11 16.6,-11.97 14.67,-25.48 -1.93,-13.51 -22.78,-23.55 -40.93,-20.08 -18.15,3.47 -30.89,30.89 -42.08,43.24 -11.2,12.35 -32.43,20.08 -65.25,34.36 -9.31,4.05 -22.57,9.3 -37.38,14.94 17.15,6.27 34.55,12.45 49.46,17.58 z"
   id="path327" />
		</g>
	</g>
</g><style
     type="text/css"
     id="style312">
	.st0{fill:#231F20;}
</style></svg>
